<svg xmlns="http://www.w3.org/2000/svg" width="38" height="38" viewBox="0 0 38 38">
  <g id="Group_159" data-name="Group 159" transform="translate(-49 -263)">
    <g id="Rectangle_69" data-name="Rectangle 69" transform="translate(50 263)" fill="#eae1e1" stroke="#000" stroke-width="1.5">
      <rect width="36" height="36" rx="5" stroke="none"/>
      <rect x="0.75" y="0.75" width="34.5" height="34.5" rx="4.25" fill="none"/>
    </g>
    <g id="san-francisco-fog-svgrepo-com" transform="translate(49 263.727)" opacity="0.997" style="isolation: isolate">
      <path id="san-francisco--fog_1_" d="M35.968,23.826a9.513,9.513,0,0,0-3.633-.725,9.705,9.705,0,0,0-1.25.105A27.014,27.014,0,0,1,25.8,8.352V4.08H24.644V1h-.835V4.08H22.651V6.414H14.217V4.08H13.059V1h-.834V4.08H11.066V8.353c0,.107-.117,10.71-7.943,17.688a9.228,9.228,0,0,0-2.013-.522.42.42,0,0,0-.1.833,8.577,8.577,0,0,1,2.074.557,8.916,8.916,0,0,1,2.591,1.539,9.59,9.59,0,0,0-1.341.636.421.421,0,0,0,.21.784.413.413,0,0,0,.209-.057,8.688,8.688,0,0,1,2.046-.862c.126-.035.255-.06.382-.089.251-.058.5-.116.754-.153.193-.027.39-.039.587-.054.181-.014.361-.035.541-.037a8.737,8.737,0,0,1,2.32.279h0a8.717,8.717,0,0,1,2.211.919,8.976,8.976,0,0,1,3.029,2.916.416.416,0,0,0,.342.194h.009a.416.416,0,0,0,.341-.177,4.206,4.206,0,0,1,5.546-1.214c.019.011.041,0,.061.008a.453.453,0,0,0,.078.065.415.415,0,0,0,.629-.285A8.927,8.927,0,0,1,25.7,26.979a8.886,8.886,0,0,1,6.637-3.037,8.7,8.7,0,0,1,3.318.66.4.4,0,0,0,.158.032.42.42,0,0,0,.158-.807Zm-17.117,2.1h1.483v1.492H18.851Zm-.417-.84H14.217V18.923h8.434v6.161H18.434Zm-1.9.84h1.483v1.492H16.534ZM16.117,9.588h6.534v6.161H14.217V9.588Zm5.051,7h1.482v1.494H21.168Zm-2.317,0h1.483v1.494H18.851Zm-2.317,0h1.483v1.494H16.534Zm-2.317,0H15.7v1.494H14.217Zm0,9.335H15.7v1.492H14.217Zm6.951,0h1.482v1.492H21.168ZM22.651,8.748H21.168V7.254h1.482V8.748Zm-2.317,0H18.851V7.254h1.483Zm-2.317,0H16.534V7.254h1.483ZM15.7,7.254V8.748H14.217V7.254ZM11.9,8V4.921h1.483V28.777a9.6,9.6,0,0,0-1.483-.589Zm-.834,5.952V27.982a9.617,9.617,0,0,0-1.85-.2.379.379,0,0,0-.05-.01c-.02,0-.039,0-.058,0-.237,0-.474.03-.71.049-.167.014-.332.014-.5.037a9.658,9.658,0,0,0-1.323.266,9.465,9.465,0,0,0-2.6-1.739A25.2,25.2,0,0,0,11.066,13.953ZM17,31.8a9.84,9.84,0,0,0-2.78-2.574v-.968h8.434v2.254A5.047,5.047,0,0,0,17,31.8Zm6.487-2.831V4.921h1.482V26.562A9.844,9.844,0,0,0,23.485,28.969ZM25.8,25.682V14.08a26.3,26.3,0,0,0,4.358,9.285A9.635,9.635,0,0,0,25.8,25.682Z" transform="translate(0.622 0.476)"/>
      <rect id="_Transparent_Rectangle" width="38" height="37" transform="translate(0 0.273)" fill="none"/>
      <path id="san-francisco--fog_1_2" data-name="san-francisco--fog_1_" d="M37.561,24.855a9.942,9.942,0,0,0-3.8-.757,10.143,10.143,0,0,0-1.306.11A28.232,28.232,0,0,1,26.937,8.684V4.219H25.727V1h-.873V4.219H23.643V6.658H14.829V4.219H13.619V1h-.872V4.219H11.536V8.685c0,.112-.122,11.193-8.3,18.486a9.645,9.645,0,0,0-2.1-.545.439.439,0,0,0-.108.871,8.963,8.963,0,0,1,2.167.582A9.318,9.318,0,0,1,5.9,29.687a10.023,10.023,0,0,0-1.4.665.44.44,0,0,0,.219.819.432.432,0,0,0,.218-.06,9.08,9.08,0,0,1,2.138-.9c.132-.037.266-.062.4-.093.263-.061.527-.121.788-.16.2-.028.408-.04.614-.056.189-.015.378-.037.565-.039a9.131,9.131,0,0,1,2.425.291h0a9.11,9.11,0,0,1,2.311.961,9.38,9.38,0,0,1,3.166,3.047.435.435,0,0,0,.357.2h.01a.435.435,0,0,0,.356-.185,4.4,4.4,0,0,1,5.8-1.268c.019.011.042,0,.064.009a.473.473,0,0,0,.081.068.433.433,0,0,0,.657-.3,9.329,9.329,0,0,1,2.166-4.54,9.286,9.286,0,0,1,6.936-3.174,9.091,9.091,0,0,1,3.467.69.414.414,0,0,0,.165.033.439.439,0,0,0,.165-.844ZM19.672,27.048h1.55v1.56h-1.55Zm-.436-.878H14.829V19.731h8.814V26.17H19.236Zm-1.986.878H18.8v1.56h-1.55ZM16.815,9.975h6.828v6.439H14.829V9.975Zm5.279,7.317h1.548v1.561H22.093Zm-2.421,0h1.55v1.561h-1.55Zm-2.421,0H18.8v1.561h-1.55Zm-2.421,0h1.55v1.561h-1.55Zm0,9.756h1.55v1.56h-1.55Zm7.264,0h1.548v1.56H22.093ZM23.643,9.1h-1.55V7.536h1.548V9.1Zm-2.421,0h-1.55V7.536h1.55ZM18.8,9.1h-1.55V7.536H18.8ZM16.379,7.536V9.1h-1.55V7.536Zm-3.971.78V5.1h1.55V30.029a10.031,10.031,0,0,0-1.55-.616Zm-.872,6.22V29.2A10.05,10.05,0,0,0,9.6,28.987a.4.4,0,0,0-.052-.011c-.021,0-.041,0-.061,0-.248,0-.5.032-.742.051-.174.015-.347.015-.523.039a10.094,10.094,0,0,0-1.383.278,9.892,9.892,0,0,0-2.722-1.817A26.338,26.338,0,0,0,11.536,14.537Zm6.2,18.652a10.284,10.284,0,0,0-2.906-2.69V29.487h8.814v2.356A5.274,5.274,0,0,0,17.735,33.189Zm6.78-2.958V5.1h1.548V27.715A10.288,10.288,0,0,0,24.515,30.23ZM26.936,26.8V14.67a27.49,27.49,0,0,0,4.555,9.7A10.07,10.07,0,0,0,26.936,26.8Z" transform="translate(-0.104 -0.251)" fill="none"/>
    </g>
  </g>
</svg>
